<?xml version="1.0" encoding="UTF-8" standalone="no"?>
<svg
   xmlns:dc="http://purl.org/dc/elements/1.1/"
   xmlns:cc="http://creativecommons.org/ns#"
   xmlns:rdf="http://www.w3.org/1999/02/22-rdf-syntax-ns#"
   xmlns:svg="http://www.w3.org/2000/svg"
   xmlns="http://www.w3.org/2000/svg"
   xmlns:sodipodi="http://sodipodi.sourceforge.net/DTD/sodipodi-0.dtd"
   xmlns:inkscape="http://www.inkscape.org/namespaces/inkscape"
   id="svg"
   version="1.1"
   width="400"
   height="300"
   viewBox="0 0 400 300"
   sodipodi:docname="igloo.svg"
   inkscape:version="0.92.3 (d244b95, 2018-08-02)">
  <metadata
     id="metadata200">
    <rdf:RDF>
      <cc:Work
         rdf:about="">
        <dc:format>image/svg+xml</dc:format>
        <dc:type
           rdf:resource="http://purl.org/dc/dcmitype/StillImage" />
        <dc:title></dc:title>
      </cc:Work>
    </rdf:RDF>
  </metadata>
  <defs
     id="defs198" />
  <sodipodi:namedview
     pagecolor="#ffffff"
     bordercolor="#666666"
     borderopacity="1"
     objecttolerance="10"
     gridtolerance="10"
     guidetolerance="10"
     inkscape:pageopacity="0"
     inkscape:pageshadow="2"
     inkscape:window-width="2560"
     inkscape:window-height="1416"
     id="namedview196"
     showgrid="false"
     inkscape:zoom="2"
     inkscape:cx="147.14365"
     inkscape:cy="132.82217"
     inkscape:window-x="2560"
     inkscape:window-y="0"
     inkscape:window-maximized="1"
     inkscape:current-layer="svg" />
  <g
     id="svgg"
     transform="matrix(1.1009968,0,0,1.0564079,-40.539873,-39.768499)">
    <g
       id="g246">
      <path
         sodipodi:nodetypes="ccccscc"
         style="fill:#fbfbfb;fill-rule:evenodd;stroke:none"
         inkscape:connector-curvature="0"
         d="M 114.09605,172.19079 C 74.070747,173.10902 40.149447,197.45064 40,235.27445 c 0.18382,35.93329 0.0062,37.36206 0,79.42555 h 152 c 30.4357,-45.16571 33.3061,-41.89093 51.0386,-80.07087 C 260.22689,197.62094 241.9907,100.18954 242,49.08 156.456,49.019 117.89005,128.25179 114.09605,172.19079 Z"
         id="path0" />
    </g>
    <path
       id="path1"
       d="m 242,223.6974 c -0.0984,-32.0819 -24.6104,-51.0163 -47.61801,-51.54306 -15.78975,0.13153 -74.69737,0.20359 -71.772,0.189 41.66934,0.1703 68.01574,31.35416 69.39001,75.76111 0.0702,26.46268 0.15969,31.05994 0,66.89555 H 396.44687 C 396.31278,193.05581 396.4239,287.35203 396.061,192.4 396.43972,113.80309 324.87981,49.468356 242,49.08"
       inkscape:connector-curvature="0"
       style="fill:#046464;fill-rule:evenodd;stroke:none"
       sodipodi:nodetypes="cccccccc" />
    <path
       id="path2"
       d="M 114.76301,195.28229 C 79.486508,195.15635 58.091328,218.04089 58,253.13198 57.850806,292.60006 57.838078,258.28589 58,315 h 113 c -0.0142,-34.99749 0.10585,-21.74599 0,-61.73906 0.21681,-33.79292 -22.08052,-57.85248 -56.23699,-57.97861"
       inkscape:connector-curvature="0"
       style="fill:#042424;fill-rule:evenodd;stroke:none"
       sodipodi:nodetypes="cccccc" />
  </g>
</svg>
